# AST/ASF file generated using VICON BodyLanguage
# -----------------------------------------------
:version 1.10
:name VICON
:units
  mass 1.0
  length 0.45
  angle deg
:documentation
   .ast/.asf automatically generated from VICON data using
   VICON BodyBuilder and BodyLanguage model FoxedUp or BRILLIANT.MOD
:root
   order TX TY TZ RX RY RZ
   axis XYZ
   position 0 0 0  
   orientation 0 0 0 
:bonedata
  begin
     id 1 
     name lhipjoint
     direction 0.682418 -0.694059 0.22932 
     length 2.25561 
     axis 0 0 0  XYZ
  end
  begin
     id 2 
     name lfemur
     direction 0.34202 -0.939693 0  
     length 6.96448  
     axis 0 0 20  XYZ
    dof rx ry rz
    limits (-160.0 20.0)
           (-70.0 70.0)
           (-60.0 70.0)
  end
  begin
     id 3 
     name ltibia
     direction 0.34202 -0.939693 0   
     length 6.88553   
     axis 0 0 20   XYZ
    dof rx
    limits (-10.0 170.0)
  end
  begin
     id 4 
     name lfoot
     direction 0.0723587 -0.198804 0.977364   
     length 1.88518   
     axis -90 7.62852e-016 20   XYZ
    dof rx rz
    limits (-45.0 90.0)
           (-70.0 20.0)
  end
  begin
     id 5 
     name ltoes
     direction 1.53558e-011 -4.21962e-011 1   
     length 0.952124   
     axis -90 7.62852e-016 20   XYZ
    dof rx
    limits (-90.0 20.0)
  end
  begin
     id 6 
     name rhipjoint
     direction -0.657603 -0.71533 0.236348   
     length 2.18854  
     axis 0 0 0  XYZ 
  end
  begin
     id 7 
     name rfemur
     direction -0.34202 -0.939693 0   
     length 6.86686   
     axis 0 0 -20   XYZ
    dof rx ry rz
    limits (-160.0 20.0)
           (-70.0 70.0)
           (-70.0 60.0)
  end
  begin
     id 8 
     name rtibia
     direction -0.34202 -0.939693 0   
     length 6.59503   
     axis 0 0 -20   XYZ
    dof rx
    limits (-10.0 170.0)
 end
 begin
     id 9 
     name rfoot
     direction -0.101977 -0.280179 0.954516   
     length 1.93723  
     axis -90 -7.62852e-016 -20   XYZ
    dof rx rz
    limits (-45.0 90.0)
           (-20.0 70.0)
  end
  begin
     id 10 
     name rtoes
     direction -1.53564e-011 -4.21897e-011 1   
     length 0.970315   
     axis -90 -7.62852e-016 -20   XYZ
    dof rx
    limits (-90.0 20.0)
  end
  begin
     id 11 
     name lowerback
     direction -0.0339559 0.999421 -0.00235966   
     length 1.88543   
     axis 0 0 0   XYZ
    dof rx ry rz
    limits (-20.0 45.0)
           (-30.0 30.0)
           (-30.0 30.0)
  end
  begin
     id 12 
     name upperback
     direction 0.00401003 0.999739 0.0224689   
     length 1.8856   
     axis 0 0 0   XYZ
    dof rx ry rz
    limits (-20.0 45.0)
           (-30.0 30.0)
           (-30.0 30.0)
  end
  begin
     id 13 
     name thorax
     direction 0.0198619 0.999546 0.0226536   
     length 1.88352   
     axis 0 0 0   XYZ
    dof rx ry rz
    limits (-20.0 45.0)
           (-30.0 30.0)
           (-30.0 30.0)
  end
  begin
     id 14 
     name lowerneck
     direction -0.0461848 0.998632 0.0245198   
     length 1.34895   
     axis 0 0 0   XYZ
    dof rx ry rz
    limits (-20.0 45.0)
           (-30.0 30.0)
           (-30.0 30.0)
  end
  begin
     id 15 
     name upperneck
     direction -0.0180627 0.994724 -0.100984   
     length 1.35214   
     axis 0 0 0   XYZ
    dof rx ry rz
    limits (-20.0 45.0)
           (-30.0 30.0)
           (-30.0 30.0)
  end
  begin
     id 16
     name head
     direction -0.00374772 0.999293 -0.037403  
     length 1.3568  
     axis 0 0 0   XYZ
    dof rx ry rz
    limits (-20.0 45.0)
           (-30.0 30.0)
           (-30.0 30.0)
  end
  begin
     id 17 
     name lclavicle
     direction 0.971773 0.191119 0.138311  
     length 2.84954  
     axis 0 0 0   XYZ
    dof ry rz
    limits (-20.0 10.0)
           (0.0 20.0)
  end
  begin
     id 18 
     name lhumerus
     direction 1 -4.4897e-011 -2.43761e-027   
     length 4.40919   
     axis 180 -30 -90   XYZ
    dof rx ry rz
    limits (-60.0 90.0)
           (-90.0 90.0)
           (-90.0 90.0)
  end
  begin
     id 19
     name lradius
     direction 1 -4.4896e-011 -9.1621e-027   
     length 3.03857   
     axis 180 -30 -90   XYZ
    dof rx
    limits (-10.0 170.0)
  end
  begin
     id 20
     name lwrist
     direction 1 -4.4896e-011 -1.41363e-026   
     length 1.51928   
     axis 1.07133e-014 90 90   XYZ
    dof ry
    limits (-180.0 0.0)
 end
  begin
     id 21 
     name lhand
     direction 1 -4.48978e-011 -2.82725e-026   
     length 0.523208   
     axis 1.80403e-014 90 90   XYZ
    dof rx rz
    limits (-90.0 90.0)
           (-45.0 45.0)
  end
  begin
     id 22 
     name lfingers
     direction 1 -4.48977e-011 -5.6545e-026   
     length 0.421824   
     axis 3.60806e-014 90 90   XYZ
    dof rx
    limits (0.0 90.0)
  end
  begin
     id 23
     name lthumb
     direction 0.707107 -6.34962e-011 0.707107   
     length 0.605657   
     axis -90 45 2.85299e-015   XYZ
    dof rx rz
    limits (-45.0 45.0)
           (-45.0 45.0)
  end
  begin
     id 24 
     name rclavicle
     direction -0.957247 0.24311 0.156766   
     length 3.12406  
     axis 0 0 0   XYZ 
    dof ry rz
    limits (-10.0 20.0)
           (-20.0 0.0)
  end
  begin
     id 25 
     name rhumerus
     direction -1 -4.48964e-011 -1.70632e-027  
     length 4.61969   
     axis 180 30 90   XYZ
    dof rx ry rz
    limits (-90.0 60.0)
           (-90.0 90.0)
           (-90.0 90.0)
  end
  begin
     id 26 
     name rradius
     direction -1 -4.48966e-011 -6.60395e-027   
     length 3.09382   
     axis 180 30 90   XYZ
    dof rx
    limits (-10.0 170.0)
  end
  begin
     id 27 
     name rwrist
     direction -1 -4.48963e-011 -1.41363e-026   
     length 1.54691   
     axis 1.07133e-014 -90 -90   XYZ
    dof ry
    limits (-180.0 0.0)
  end
  begin
     id 28
     name rhand
     direction -1 -4.49013e-011 -2.82725e-026   
     length 0.500896   
     axis 1.80403e-014 -90 -90   XYZ
    dof rx rz
    limits (-90.0 90.0)
           (-45.0 45.0)
  end
  begin
     id 29
     name rfingers
     direction -1 -4.48902e-011 -5.6545e-026   
     length 0.403835   
     axis 3.60806e-014 -90 -90   XYZ
    dof rx
    limits (0.0 90.0)
  end
  begin
     id 30
     name rthumb
     direction -0.707107 -6.34953e-011 0.707107   
     length 0.579829   
     axis -90 -45 -2.85299e-015   XYZ
    dof rx rz
    limits (-45.0 45.0)
           (-45.0 45.0)
  end
:hierarchy
  begin
    root lhipjoint rhipjoint lowerback
    lhipjoint lfemur
    lfemur ltibia
    ltibia lfoot
    lfoot ltoes
    rhipjoint rfemur
    rfemur rtibia
    rtibia rfoot
    rfoot rtoes
    lowerback upperback
    upperback thorax
    thorax lowerneck lclavicle rclavicle
    lowerneck upperneck
    upperneck head
    lclavicle lhumerus
    lhumerus lradius
    lradius lwrist
    lwrist lhand lthumb
    lhand lfingers
    rclavicle rhumerus
    rhumerus rradius
    rradius rwrist
    rwrist rhand rthumb
    rhand rfingers
  end

#!OML:ASF E:\madness\Project 1\Capture day 1\Session 1\Female1.ASF
:FULLY-SPECIFIED
:DEGREES
1323
root 7.00365 16.3718 0.8917 195.93 -69.9824 -187.947
lowerback -8.27571 -0.295965 -4.29924
upperback -5.52027 -0.35939 0.430042
thorax -1.0663 -0.166496 2.83449
lowerneck 0.400593 4.0202 1.24807
upperneck 7.61692 5.48141 -3.79766
head 2.49725 2.60857 -1.31049
rclavicle -3.72721e-015 5.76476e-015
rhumerus -48.6383 -4.88857 -83.5667
rradius 33.4955
rwrist 3.55782
rhand -13.2353 -50.3075
rfingers 7.12502
rthumb 12.8663 -79.8909
lclavicle -3.72721e-015 5.76476e-015
lhumerus -50.1663 8.0299 84.4995
lradius 36.0791
lwrist -6.27286
lhand -25.9945 -0.175742
lfingers 7.12502
lthumb 0.551104 29.8033
rfemur -4.26691 20.743 7.20902
rtibia 1.43125e-014
rfoot -6.56601 -16.3722
rtoes 11.1742
lfemur -6.81858 -16.1268 -25.6041
ltibia 14.0202
lfoot -12.3147 36.6241
ltoes 30.3233
1324
root 7.00292 16.3716 0.892617 195.948 -69.9555 -187.908
lowerback -8.36949 -0.273206 -4.28029
upperback -5.53174 -0.328313 0.425308
thorax -1.0292 -0.153026 2.82089
lowerneck 0.462091 3.99578 1.12525
upperneck 7.61222 5.44107 -3.65711
head 2.47372 2.5894 -1.24612
rclavicle -1.47598e-014 -1.5704e-014
rhumerus -48.6608 -5.03642 -83.4305
rradius 33.4714
rwrist 3.51419
rhand -13.1188 -50.4029
rfingers 7.12502
rthumb 12.9787 -79.9792
lclavicle -1.47598e-014 -1.5704e-014
lhumerus -50.18 8.05734 84.5067
lradius 36.074
lwrist -6.34808
lhand -25.9701 -0.128957
lfingers 7.12502
lthumb 0.574663 29.85
rfemur -4.34405 20.7581 7.18291
rtibia -2.46493e-014
rfoot -6.55223 -16.368
rtoes 11.1771
lfemur -6.87722 -16.0329 -25.5945
ltibia 14.0161
lfoot -11.9721 36.6214
ltoes 29.8047
1325
root 7.00333 16.3716 0.891552 195.835 -69.9438 -187.811
lowerback -8.37985 -0.255637 -4.25315
upperback -5.58334 -0.310911 0.427986
thorax -1.07868 -0.144542 2.80987
lowerneck 0.83525 3.94906 1.09559
upperneck 7.48426 5.37118 -3.66222
head 2.36132 2.55783 -1.25166
rclavicle 2.6662e-014 6.55989e-015
rhumerus -48.8403 -5.11683 -83.3323
rradius 33.5248
rwrist 3.55456
rhand -12.9168 -50.4365
rfingers 7.12502
rthumb 13.1734 -80.0004
lclavicle 2.6662e-014 6.55989e-015
lhumerus -50.3307 7.96905 84.515
lradius 36.097
lwrist -6.32194
lhand -25.895 -0.0506029
lfingers 7.12502
lthumb 0.647154 29.9282
rfemur -4.33399 20.7836 7.22777
rtibia -4.77083e-015
rfoot -6.58147 -16.3737
rtoes 11.106
lfemur -6.84522 -15.9929 -25.5692
ltibia 13.9918
lfoot -11.8347 36.6607
ltoes 29.4077
1326
root 7.0048 16.3715 0.892491 195.871 -69.945 -187.883
lowerback -8.29109 -0.239786 -4.25395
upperback -5.64708 -0.298487 0.391803
thorax -1.19515 -0.136639 2.77425
lowerneck 1.03912 3.89517 1.18504
upperneck 7.47953 5.29924 -3.75017
head 2.32751 2.52296 -1.30057
rclavicle -7.00716e-015 -8.15017e-015
rhumerus -49.0422 -5.16975 -83.2787
rradius 33.555
rwrist 3.56166
rhand -12.9466 -49.865
rfingers 7.12502
rthumb 13.1447 -79.4307
lclavicle -7.00716e-015 -8.15017e-015
lhumerus -50.4487 7.80614 84.5467
lradius 36.107
lwrist -6.23115
lhand -25.8691 0.0396654
lfingers 7.12502
lthumb 0.672133 30.0184
rfemur -4.30421 20.7835 7.22389
rtibia 8.74653e-015
rfoot -6.55409 -16.427
rtoes 10.486
lfemur -6.80877 -15.9646 -25.5915
ltibia 13.9511
lfoot -11.854 36.6252
ltoes 29.3828
1327
root 7.00524 16.3709 0.895173 195.982 -69.9256 -187.96
lowerback -8.23479 -0.231652 -4.23867
upperback -5.72042 -0.297279 0.357082
thorax -1.30287 -0.135362 2.73025
lowerneck 1.00034 3.86756 1.17081
upperneck 7.62959 5.26097 -3.70014
head 2.3807 2.50117 -1.2816
rclavicle 2.65874e-015 1.21259e-014
rhumerus -49.1613 -5.11436 -83.3012
rradius 33.5658
rwrist 3.41628
rhand -12.8471 -49.9194
rfingers 7.12502
rthumb 13.2406 -79.4788
lclavicle 2.65874e-015 1.21259e-014
lhumerus -50.581 7.74341 84.5513
lradius 36.175
lwrist -6.20491
lhand -25.8644 -0.0417369
lfingers 7.12502
lthumb 0.676752 29.9369
rfemur -4.36896 20.7844 7.16987
rtibia -1.82882e-014
rfoot -6.45036 -16.4529
rtoes 9.94148
lfemur -6.85181 -15.8242 -25.6099
ltibia 13.9235
lfoot -11.9325 36.4763
ltoes 29.6811
1328
root 7.00555 16.3705 0.896327 196.047 -69.8832 -187.981
lowerback -8.20734 -0.245557 -4.26796
upperback -5.7833 -0.320548 0.37113
thorax -1.38204 -0.144917 2.76003
lowerneck 1.04148 3.86694 1.07058
upperneck 7.65177 5.25463 -3.6061
head 2.37369 2.4972 -1.2349
rclavicle -3.25013e-014 -1.59028e-014
rhumerus -49.2396 -4.9627 -83.3558
rradius 33.6149
rwrist 3.1117
rhand -12.6126 -50.7047
rfingers 7.12502
rthumb 13.4666 -80.2493
lclavicle -3.25013e-014 -1.59028e-014
lhumerus -50.6821 7.81438 84.5403
lradius 36.1976
lwrist -6.19967
lhand -25.5632 0.0943025
lfingers 7.12502
lthumb 0.967591 30.0719
rfemur -4.43829 20.8101 7.11843
rtibia 2.06736e-014
rfoot -6.40149 -16.4399
rtoes 10.0321
lfemur -6.89658 -15.748 -25.6189
ltibia 13.9008
lfoot -11.9626 36.4432
ltoes 29.7257
1329
root 7.00744 16.3709 0.896859 196.09 -69.8653 -187.96
lowerback -8.22839 -0.266065 -4.30581
upperback -5.81529 -0.347484 0.407619
thorax -1.40191 -0.15678 2.81736
lowerneck 1.06263 3.87092 1.02408
upperneck 7.60985 5.26025 -3.62121
head 2.35517 2.49912 -1.2322
rclavicle -1.44616e-014 -8.74653e-015
rhumerus -49.3298 -4.88013 -83.3311
rradius 33.7658
rwrist 2.92317
rhand -12.5129 -51.1698
rfingers 7.12502
rthumb 13.5627 -80.7081
lclavicle -1.44616e-014 -8.74653e-015
lhumerus -50.6866 7.86482 84.5729
lradius 36.1901
lwrist -6.18182
lhand -25.3264 0.433294
lfingers 7.12502
lthumb 1.19637 30.4097
rfemur -4.50741 20.814 7.08874
rtibia 2.38542e-015
rfoot -6.42632 -16.4471
rtoes 10.387
lfemur -6.97316 -15.6739 -25.5955
ltibia 13.877
lfoot -11.7158 36.4336
ltoes 29.0614
1330
root 7.00739 16.3705 0.897244 196.097 -69.8241 -187.938
lowerback -8.28515 -0.254845 -4.31633
upperback -5.79279 -0.328071 0.412893
thorax -1.34879 -0.14794 2.82979
lowerneck 0.969739 3.85207 0.991633
upperneck 7.65505 5.23676 -3.6139
head 2.38479 2.48523 -1.22293
rclavicle -4.65653e-014 -2.98177e-015
rhumerus -49.4186 -4.85564 -83.3052
rradius 34.0747
rwrist 2.91823
rhand -12.5594 -51.1239
rfingers 7.12502
rthumb 13.5179 -80.6651
lclavicle -4.65653e-014 -2.98177e-015
lhumerus -50.6491 7.84248 84.6133
lradius 36.2125
lwrist -6.21847
lhand -25.7202 0.171769
lfingers 7.12502
lthumb 0.815995 30.15
rfemur -4.5452 20.8478 7.06481
rtibia -1.51076e-014
rfoot -6.4683 -16.4328
rtoes 10.7069
lfemur -6.99654 -15.7504 -25.5877
ltibia 13.8532
lfoot -11.628 36.5425
ltoes 29.0208
1331
root 7.00578 16.371 0.896467 196.059 -69.7533 -187.934
lowerback -8.29048 -0.234975 -4.33925
upperback -5.77528 -0.298703 0.40551
thorax -1.33008 -0.133023 2.83699
lowerneck 1.07004 3.85476 0.86531
upperneck 7.60557 5.23113 -3.47623
head 2.34112 2.48405 -1.1592
rclavicle 7.25564e-015 1.64991e-014
rhumerus -49.484 -4.90096 -83.2529
rradius 34.1801
rwrist 3.05221
rhand -12.8809 -50.7091
rfingers 7.12502
rthumb 13.208 -80.2707
lclavicle 7.25564e-015 1.64991e-014
lhumerus -50.6827 7.82096 84.6332
lradius 36.2486
lwrist -6.18088
lhand -26.0345 -0.298964
lfingers 7.12502
lthumb 0.512472 29.6802
rfemur -4.53022 20.9218 7.05186
rtibia 1.35174e-014
rfoot -6.49709 -16.3996
rtoes 10.9152
lfemur -6.90719 -15.8459 -25.6273
ltibia 13.8263
lfoot -11.8249 36.6509
ltoes 29.6378
1332
root 7.00754 16.373 0.89587 196.1 -69.7399 -187.978
lowerback -8.1962 -0.252265 -4.38822
upperback -5.84913 -0.328524 0.416854
thorax -1.45705 -0.143885 2.87489
lowerneck 1.32897 3.85624 0.713389
upperneck 7.51101 5.22128 -3.36603
head 2.25455 2.4805 -1.10332
rclavicle 8.05078e-015 9.93923e-016
rhumerus -49.5445 -4.91746 -83.1957
rradius 34.0069
rwrist 3.08481
rhand -13.0602 -50.38
rfingers 7.12502
rthumb 13.0352 -79.9528
lclavicle 8.05078e-015 9.93923e-016
lhumerus -50.8986 7.87275 84.5878
lradius 36.3754
lwrist -6.08923
lhand -25.2324 0.361743
lfingers 7.12502
lthumb 1.2871 30.3376
rfemur -4.54258 20.9305 7.03746
rtibia -2.62396e-014
rfoot -6.50913 -16.3941
rtoes 10.799
lfemur -6.87172 -15.7486 -25.659
ltibia 13.8016
lfoot -11.8134 36.5657
ltoes 29.8697
1333
root 7.00883 16.3743 0.896425 196.063 -69.7124 -187.947
lowerback -8.10105 -0.248914 -4.39496
upperback -5.91025 -0.332442 0.426731
thorax -1.57308 -0.14303 2.88931
lowerneck 1.51709 3.79962 0.725449
upperneck 7.4296 5.14487 -3.44958
head 2.19583 2.44282 -1.13718
rclavicle -1.45113e-014 8.74653e-015
rhumerus -49.6267 -4.84426 -83.2337
rradius 33.9869
rwrist 2.88821
rhand -12.8532 -50.81
rfingers 7.12502
rthumb 13.2347 -80.3699
lclavicle -1.45113e-014 8.74653e-015
lhumerus -51.0138 7.83753 84.5858
lradius 36.4081
lwrist -6.03244
lhand -24.4483 1.60393
lfingers 7.12502
lthumb 2.04435 31.5739
rfemur -4.55184 20.9603 7.03958
rtibia -8.74653e-015
rfoot -6.52964 -16.428
rtoes 10.6097
lfemur -6.86077 -15.7064 -25.6535
ltibia 13.7663
lfoot -11.8111 36.5514
ltoes 30.1604
1334
root 7.0079 16.3734 0.896575 195.977 -69.6832 -187.895
lowerback -8.06319 -0.239762 -4.38887
upperback -5.90541 -0.321392 0.441419
thorax -1.58966 -0.136715 2.90197
lowerneck 1.58355 3.7502 0.722996
upperneck 7.36771 5.07982 -3.51033
head 2.16416 2.41033 -1.1587
rclavicle -8.39865e-015 -8.54774e-015
rhumerus -49.6635 -4.762 -83.2609
rradius 34.0448
rwrist 2.74917
rhand -12.7225 -51.1977
rfingers 7.12502
rthumb 13.3607 -80.7493
lclavicle -8.39865e-015 -8.54774e-015
lhumerus -50.9834 7.82368 84.6523
lradius 36.3588
lwrist -5.99571
lhand -24.5049 2.23216
lfingers 7.12502
lthumb 1.98976 32.2026
rfemur -4.51711 21.0008 7.05719
rtibia -1.03368e-014
rfoot -6.53889 -16.4381
rtoes 10.5453
lfemur -6.81122 -15.5908 -25.6495
ltibia 13.7178
lfoot -11.817 36.4679
ltoes 30.1625
